<svg xmlns="http://www.w3.org/2000/svg" width="96" height="96" viewBox="0 0 96 96" role="img" aria-labelledby="title desc">
  <title id="title">PlayerOne</title>
  <desc id="desc">Avatar do usuario PlayerOne</desc>
  <defs>
    <linearGradient id="bg" x1="12" y1="10" x2="84" y2="86" gradientUnits="userSpaceOnUse">
      <stop offset="0" stop-color="#ff7a59"/>
      <stop offset="1" stop-color="#ff3f9b"/>
    </linearGradient>
  </defs>
  <rect width="96" height="96" rx="48" fill="#11141b"/>
  <circle cx="48" cy="48" r="43" fill="url(#bg)" opacity=".9"/>
  <circle cx="48" cy="40" r="16" fill="#f2d0b8"/>
  <path d="M27 78c3-16 14-25 21-25s18 9 21 25" fill="#1d2330"/>
  <path d="M32 38c3-14 12-22 24-18 8 3 12 9 12 18-9-2-18-5-25-11-2 5-5 9-11 11z" fill="#2a3140"/>
  <circle cx="42" cy="42" r="2" fill="#11141b"/>
  <circle cx="55" cy="42" r="2" fill="#11141b"/>
  <path d="M42 51c4 4 9 4 13 0" fill="none" stroke="#11141b" stroke-width="3" stroke-linecap="round"/>
</svg>
